<?xml version="1.0" encoding="UTF-8" standalone="no"?>
<!-- Created with Inkscape (http://www.inkscape.org/) -->

<svg
   width="127.99999"
   height="127.99999"
   viewBox="0 0 33.866664 33.866664"
   version="1.1"
   id="svg5"
   inkscape:export-filename="favicon.svg"
   inkscape:export-xdpi="96"
   inkscape:export-ydpi="96"
   xmlns:inkscape="http://www.inkscape.org/namespaces/inkscape"
   xmlns:sodipodi="http://sodipodi.sourceforge.net/DTD/sodipodi-0.dtd"
   xmlns="http://www.w3.org/2000/svg"
   xmlns:svg="http://www.w3.org/2000/svg">
  <sodipodi:namedview
     id="namedview7"
     pagecolor="#ffffff"
     bordercolor="#000000"
     borderopacity="0.25"
     inkscape:showpageshadow="2"
     inkscape:pageopacity="0.0"
     inkscape:pagecheckerboard="0"
     inkscape:deskcolor="#d1d1d1"
     inkscape:document-units="mm"
     showgrid="false" />
  <defs
     id="defs2" />
  <g
     inkscape:label="Layer 1"
     inkscape:groupmode="layer"
     id="layer1">
    <path
       id="text113"
       style="font-size:29.9731px;font-family:red;-inkscape-font-specification:red;fill:#e02323;fill-opacity:1;stroke-width:2.49776"
       d="m 7.6605143,12.286589 c -0.3590524,-0.0016 -0.7255278,0.07897 -1.1001912,0.241328 -0.5994614,0.259767 -1.2093855,0.639398 -1.828829,1.138949 -0.6194434,0.479569 -1.2488313,1.009054 -1.8882568,1.588534 -0.09991,0.07993 -0.1998131,0.16984 -0.2997233,0.269751 -0.1198923,0.09991 -0.2297854,0.199813 -0.3296956,0.299723 -0.1798385,0.159856 -0.2797413,0.369652 -0.2997233,0.629419 -0.019982,0.239784 0.05994,0.44958 0.2397786,0.629419 0.1598564,0.19982 0.3696523,0.309713 0.6294189,0.329695 0.2397846,0 0.4495806,-0.07992 0.629419,-0.239778 l 0.2997233,-0.299724 c 0.1198923,-0.09991 0.2297854,-0.189822 0.3296956,-0.269751 0.419623,-0.379658 0.8292247,-0.739309 1.2288656,-1.079003 0.3996409,-0.359677 0.7792717,-0.649396 1.1389486,-0.869198 0.2198025,-0.159856 0.4101346,-0.27974 0.569991,-0.359668 0.1798384,-0.07993 0.3296927,-0.13987 0.449585,-0.179834 -0.039964,0.05995 -0.069935,0.09991 -0.089917,0.119889 -0.079928,0.139875 -0.179831,0.309709 -0.2997233,0.50953 -0.09991,0.179838 -0.2098034,0.349673 -0.3296957,0.50953 -0.3796589,0.519533 -0.6898744,1.019047 -0.929659,1.498616 -0.2397845,0.459587 -0.289736,0.90915 -0.1498616,1.348755 0.039964,0.09991 0.1198863,0.239774 0.2397786,0.419613 0.1398743,0.159856 0.3701676,0.279739 0.6898804,0.359668 0.059946,0.01998 0.1398684,0.02997 0.2397786,0.02997 0.09991,0 0.1998131,-0.01 0.2997233,-0.02997 0.09991,-0.03996 0.2197937,-0.07993 0.359668,-0.11989 0.1198923,-0.03996 0.249766,-0.07992 0.3896403,-0.119889 0.1598564,-0.05995 0.3396815,-0.129878 0.539502,-0.209806 0.3596768,-0.139875 0.7992493,-0.299719 1.3187825,-0.479558 0.5195332,-0.179838 1.0989692,-0.379644 1.7383952,-0.599446 0.06098,-0.02772 0.116196,-0.06072 0.167948,-0.09767 0.505509,-0.187204 1.004011,-0.374519 1.48053,-0.561723 0.57948,-0.219802 1.088984,-0.409617 1.528589,-0.569474 -0.399641,1.258869 -0.689359,2.207946 -0.869198,2.847372 -0.179838,0.639425 -0.269751,1.099495 -0.269751,1.379244 0,0.279748 0.03996,0.499534 0.11989,0.659391 0.159856,0.259766 0.359662,0.429601 0.599446,0.509529 0.119893,0.01998 0.229786,0.02997 0.329696,0.02997 0.09991,0.01998 0.199813,0.02997 0.299723,0.02997 0.759318,0 1.788317,-0.33967 3.08715,-1.019059 0.639426,-0.339695 1.318765,-0.739306 2.038119,-1.198893 0.719354,-0.459587 1.458635,-0.939638 2.217952,-1.439189 0.179839,-0.119892 0.349674,-0.229785 0.50953,-0.329696 0.11365,-0.07577 0.216274,-0.151609 0.321944,-0.227376 0.121879,-0.03919 0.235016,-0.101186 0.337447,-0.192236 l 0.299724,-0.299724 c 0.119892,-0.09991 0.229785,-0.189822 0.329695,-0.269751 0.419623,-0.379658 0.829225,-0.739309 1.228866,-1.079003 0.399641,-0.359677 0.779272,-0.649396 1.138948,-0.869198 0.219803,-0.159856 0.409618,-0.27974 0.569475,-0.359668 0.179838,-0.07993 0.329692,-0.13987 0.449585,-0.179834 -0.03996,0.05995 -0.06994,0.09991 -0.08992,0.119889 -0.07993,0.139875 -0.179831,0.309709 -0.299724,0.50953 -0.09991,0.179838 -0.209803,0.349673 -0.329695,0.50953 -0.379659,0.519533 -0.689358,1.019047 -0.929143,1.498616 -0.239784,0.459587 -0.289736,0.90915 -0.149861,1.348755 0.03996,0.09991 0.119886,0.239774 0.239778,0.419613 0.139875,0.159856 0.369651,0.279739 0.689364,0.359668 0.05995,0.01998 0.139868,0.02997 0.239779,0.02997 0.09991,0 0.199813,-0.01 0.299723,-0.02997 0.09991,-0.03996 0.219794,-0.07993 0.359668,-0.11989 0.119892,-0.03996 0.250283,-0.07992 0.390157,-0.119889 0.159856,-0.05995 0.339681,-0.129878 0.539502,-0.209806 0.359677,-0.139875 0.799249,-0.299719 1.318783,-0.479558 0.519533,-0.179838 1.098969,-0.379644 1.738395,-0.599446 0.219802,-0.09991 0.379647,-0.259755 0.479557,-0.479558 0.119892,-0.239784 0.129883,-0.469561 0.02997,-0.689363 -0.07993,-0.239785 -0.229782,-0.40962 -0.449585,-0.50953 -0.219802,-0.119892 -0.459569,-0.139873 -0.719336,-0.05994 -0.679389,0.259766 -1.258826,0.479552 -1.738395,0.659391 -0.479569,0.179838 -0.86919,0.329692 -1.168921,0.449585 0.05995,-0.07993 0.109898,-0.159851 0.149862,-0.239779 0.05995,-0.09991 0.109898,-0.169842 0.149862,-0.209806 0.399641,-0.57948 0.72932,-1.108965 0.989087,-1.588534 0.259766,-0.499551 0.299727,-0.969094 0.119889,-1.408699 -0.01998,-0.139875 -0.109895,-0.299719 -0.269751,-0.479558 -0.139874,-0.19982 -0.379641,-0.339684 -0.719336,-0.419612 -0.559497,-0.159857 -1.139451,-0.109905 -1.738912,0.149861 -0.599461,0.259767 -1.208869,0.639398 -1.828312,1.138949 -0.619444,0.479569 -1.248831,1.009054 -1.888257,1.588534 -0.09991,0.07993 -0.199813,0.16984 -0.299723,0.269751 -0.05129,0.04274 -0.09345,0.08542 -0.141077,0.128157 -0.05337,0.02196 -0.106403,0.0484 -0.158647,0.08165 -0.139874,0.119892 -0.299718,0.229785 -0.479557,0.329696 l -0.479557,0.299723 c -0.739336,0.499551 -1.468627,0.979085 -2.18798,1.438672 -0.699372,0.439605 -1.358731,0.829226 -1.978174,1.168921 -0.719354,0.379658 -1.268819,0.609952 -1.648478,0.68988 0.03996,-0.159856 0.08992,-0.340198 0.149861,-0.540019 0.05995,-0.19982 0.139869,-0.439587 0.239779,-0.719336 0.159856,-0.499551 0.309711,-0.989075 0.449585,-1.468644 0.159856,-0.499551 0.309711,-0.919143 0.449585,-1.258838 0.03996,-0.119892 0.06993,-0.219795 0.08992,-0.299723 0.01998,-0.09991 0.04995,-0.189823 0.08992,-0.269751 0.03996,-0.159856 0.06994,-0.309711 0.08992,-0.449585 0.03996,-0.139874 0.01,-0.299719 -0.08992,-0.479557 -0.119892,-0.239785 -0.309708,-0.389639 -0.569474,-0.449585 -0.179839,-0.05995 -0.369654,-0.04996 -0.569475,0.02997 l -0.719336,0.269751 c -0.479569,0.179838 -1.098966,0.409615 -1.858284,0.689364 -0.739336,0.279748 -1.538559,0.579457 -2.397787,0.89917 -0.0273,0.01137 -0.05048,0.02712 -0.07596,0.04031 -0.626533,0.239355 -1.1821254,0.450209 -1.6324585,0.619084 -0.4795691,0.179838 -0.8691902,0.329692 -1.1689209,0.449585 0.059946,-0.07993 0.1098976,-0.159851 0.1498617,-0.239779 0.059946,-0.09991 0.1098975,-0.169842 0.1498616,-0.209806 0.399641,-0.57948 0.7293203,-1.108965 0.989087,-1.588534 C 9.4276825,14.186374 9.4676436,13.716831 9.2878052,13.277226 9.2678231,13.137351 9.1779106,12.977507 9.0180542,12.797668 8.8781799,12.597848 8.6384131,12.457984 8.2987183,12.378056 8.0889068,12.31811 7.8759458,12.287525 7.6605143,12.286589 Z" />
  </g>
</svg>
